<svg width="20" height="19" viewBox="0 0 20 19" fill="none" xmlns="http://www.w3.org/2000/svg">
<path fill-rule="evenodd" clip-rule="evenodd" d="M19.9964 5.38685H15.7618C13.7911 5.39031 12.1947 6.94686 12.1911 8.86828C12.1884 10.794 13.7867 12.3575 15.7618 12.3601H20V12.6661C20 16.0253 17.9636 18.0117 14.5173 18.0117H5.48356C2.03644 18.0117 0 16.0253 0 12.6661V5.34958C0 1.99034 2.03644 0.0117188 5.48356 0.0117188H14.5138C17.96 0.0117188 19.9964 1.99034 19.9964 5.34958V5.38685ZM4.73956 5.37905H10.3796H10.3831H10.3902C10.8124 5.37731 11.1538 5.04191 11.152 4.62937C11.1502 4.2177 10.8053 3.8849 10.3831 3.88663H4.73956C4.32 3.88836 3.97956 4.2203 3.97778 4.63024C3.976 5.04191 4.31733 5.37731 4.73956 5.37905Z" fill="#8A92A6"/>
<path opacity="0.4" d="M14.0374 9.30682C14.2465 10.258 15.0805 10.9272 16.0326 10.9098H19.2825C19.6787 10.9098 20 10.5817 20 10.1762V7.64465C19.9991 7.23998 19.6787 6.91103 19.2825 6.91016H15.9561C14.8731 6.91364 13.9983 7.81261 14 8.92043C14 9.0501 14.0128 9.17977 14.0374 9.30682Z" fill="#8A92A6"/>
<circle cx="16" cy="8.91016" r="1" fill="#8A92A6"/>
</svg>
