<svg width="20" height="19" viewBox="0 0 20 19" fill="none" xmlns="http://www.w3.org/2000/svg">
<path opacity="0.4" d="M2.723 18.1782C2.71 18.1782 2.698 18.1782 2.684 18.1772C2.369 18.1612 2.06 18.0932 1.766 17.9742C0.319002 17.3862 -0.378998 15.7332 0.208002 14.2872L7.529 1.46123C7.781 1.00523 8.163 0.623233 8.629 0.365233C9.994 -0.390767 11.72 0.106233 12.475 1.47023L19.748 14.1982C19.91 14.5792 19.979 14.8892 19.996 15.2052C20.035 15.9612 19.777 16.6862 19.271 17.2472C18.765 17.8082 18.07 18.1392 17.315 18.1772L2.795 18.1782H2.723Z" fill="#8A92A6"/>
<path fill-rule="evenodd" clip-rule="evenodd" d="M9.125 7.03125C9.125 6.54925 9.518 6.15625 10 6.15625C10.482 6.15625 10.875 6.54925 10.875 7.03125V9.85925C10.875 10.3422 10.482 10.7343 10 10.7343C9.518 10.7343 9.125 10.3422 9.125 9.85925V7.03125ZM9.125 13.2804C9.125 12.7954 9.518 12.4004 10 12.4004C10.482 12.4004 10.875 12.7903 10.875 13.2694C10.875 13.7624 10.482 14.1554 10 14.1554C9.518 14.1554 9.125 13.7624 9.125 13.2804Z" fill="#8A92A6"/>
</svg>
