<svg width="20" height="21" viewBox="0 0 20 21" fill="none" xmlns="http://www.w3.org/2000/svg">
<path opacity="0.4" d="M11.3051 3.89415V4.07719C10.8144 4.06756 10.3237 4.06756 9.83306 4.06756V3.90378C9.83306 3.23905 9.27368 2.69955 8.60636 2.69955H7.63482C6.52589 2.69955 5.62305 1.81324 5.62305 0.734255C5.62305 0.339269 5.95671 0.0117188 6.35906 0.0117188C6.77123 0.0117188 7.09508 0.339269 7.09508 0.734255C7.09508 1.02327 7.34042 1.25448 7.63482 1.25448H8.60636C10.0882 1.26412 11.2953 2.44907 11.3051 3.89415Z" fill="#8A92A6"/>
<path fill-rule="evenodd" clip-rule="evenodd" d="M13.164 4.09305C13.4791 4.09737 13.7949 4.1017 14.1119 4.10494C17.5172 4.10494 20 6.53266 20 9.88523V14.1915C20 17.5441 17.5172 19.9718 14.1119 19.9718C12.7478 20.0007 11.3837 20.0104 10.0098 20.0104C8.63592 20.0104 7.25221 20.0007 5.88813 19.9718C2.48283 19.9718 0 17.5441 0 14.1915V9.88523C0 6.53266 2.48283 4.10494 5.89794 4.10494C7.18351 4.08567 8.49853 4.06641 9.83317 4.06641C10.3238 4.06641 10.8145 4.06641 11.3052 4.07604C11.9238 4.07604 12.5425 4.08452 13.164 4.09305ZM8.85182 12.7561H7.82139V13.7773C7.82139 14.1723 7.48773 14.4998 7.08538 14.4998C6.67321 14.4998 6.34936 14.1723 6.34936 13.7773V12.7561H5.30913C4.90677 12.7561 4.57311 12.4382 4.57311 12.0336C4.57311 11.6386 4.90677 11.311 5.30913 11.311H6.34936V10.2995C6.34936 9.9045 6.67321 9.57695 7.08538 9.57695C7.48773 9.57695 7.82139 9.9045 7.82139 10.2995V11.311H8.85182C9.25417 11.311 9.58783 11.6386 9.58783 12.0336C9.58783 12.4382 9.25417 12.7561 8.85182 12.7561ZM13.0226 11.128H13.1207C13.5231 11.128 13.8567 10.8101 13.8567 10.4055C13.8567 10.0105 13.5231 9.68292 13.1207 9.68292H13.0226C12.6104 9.68292 12.2866 10.0105 12.2866 10.4055C12.2866 10.8101 12.6104 11.128 13.0226 11.128ZM14.7007 14.442H14.7988C15.2012 14.442 15.5348 14.1241 15.5348 13.7195C15.5348 13.3245 15.2012 12.997 14.7988 12.997H14.7007C14.2885 12.997 13.9647 13.3245 13.9647 13.7195C13.9647 14.1241 14.2885 14.442 14.7007 14.442Z" fill="#8A92A6"/>
</svg>
