<svg width="18" height="21" viewBox="0 0 18 21" fill="none" xmlns="http://www.w3.org/2000/svg">
<path opacity="0.4" d="M13.191 0.0117188H4.81C1.77 0.0117188 0 1.79172 0 4.84172V15.1717C0 18.2717 1.77 20.0117 4.81 20.0117H13.191C16.28 20.0117 18 18.2717 18 15.1717V4.84172C18 1.79172 16.28 0.0117188 13.191 0.0117188Z" fill="#8A92A6"/>
<path fill-rule="evenodd" clip-rule="evenodd" d="M5.08094 4.66016V4.67016C4.64994 4.67016 4.30094 5.02016 4.30094 5.45016C4.30094 5.88016 4.64994 6.23016 5.08094 6.23016H8.06994C8.50094 6.23016 8.85094 5.88016 8.85094 5.43916C8.85094 5.01016 8.50094 4.66016 8.06994 4.66016H5.08094ZM12.9209 10.7502H5.08094C4.64994 10.7502 4.30094 10.4002 4.30094 9.97016C4.30094 9.54016 4.64994 9.18916 5.08094 9.18916H12.9209C13.3509 9.18916 13.7009 9.54016 13.7009 9.97016C13.7009 10.4002 13.3509 10.7502 12.9209 10.7502ZM12.9209 15.3202H5.08094C4.78094 15.3602 4.49094 15.2102 4.33094 14.9602C4.17094 14.7002 4.17094 14.3702 4.33094 14.1202C4.49094 13.8602 4.78094 13.7202 5.08094 13.7502H12.9209C13.3199 13.7902 13.6209 14.1302 13.6209 14.5402C13.6209 14.9392 13.3199 15.2802 12.9209 15.3202Z" fill="#8A92A6"/>
</svg>
