<svg width="14" height="21" viewBox="0 0 14 21" fill="none" xmlns="http://www.w3.org/2000/svg">
<path fill-rule="evenodd" clip-rule="evenodd" d="M3.53162 0.94849C5.71648 -0.321007 8.40203 -0.298818 10.5664 1.00661C12.7095 2.33863 14.012 4.71589 13.9998 7.27316C13.95 9.81366 12.5533 12.2017 10.8075 14.0478C9.79983 15.1181 8.67261 16.0645 7.44884 16.8678C7.32281 16.9406 7.18475 16.9894 7.04148 17.0117C6.9036 17.0058 6.76932 16.9651 6.65075 16.8932C4.78243 15.6863 3.14334 14.1458 1.81233 12.3457C0.698589 10.8431 0.0658357 9.02773 1.16173e-06 7.14614C-0.00144468 4.58396 1.34677 2.21799 3.53162 0.94849ZM4.79416 8.2065C5.16168 9.11256 6.02918 9.70356 6.9916 9.70357C7.6221 9.70809 8.22819 9.45555 8.67481 9.0022C9.12143 8.54884 9.37148 7.93236 9.36925 7.2901C9.37261 6.30975 8.79546 5.42403 7.90726 5.04649C7.01907 4.66895 5.99504 4.87407 5.31332 5.56607C4.63159 6.25806 4.42664 7.30044 4.79416 8.2065Z" fill="#8A92A6"/>
<ellipse opacity="0.4" cx="7" cy="19.0117" rx="5" ry="1" fill="#8A92A6"/>
</svg>
