<svg width="20" height="21" viewBox="0 0 20 21" fill="none" xmlns="http://www.w3.org/2000/svg">
<path d="M10.0117 12.8414C8.40726 12.8414 7.10938 11.5914 7.10938 10.0214C7.10938 8.45141 8.40726 7.19141 10.0117 7.19141C11.6162 7.19141 12.8834 8.45141 12.8834 10.0214C12.8834 11.5914 11.6162 12.8414 10.0117 12.8414Z" fill="#8A92A6"/>
<path opacity="0.4" d="M19.2301 12.3817C19.036 12.0817 18.76 11.7817 18.4023 11.5917C18.1162 11.4517 17.9322 11.2217 17.7687 10.9517C17.2475 10.0917 17.5541 8.96172 18.4228 8.45172C19.4447 7.88172 19.7718 6.61172 19.179 5.62172L18.4943 4.44172C17.9118 3.45172 16.6344 3.10172 15.6226 3.68172C14.7233 4.16172 13.5685 3.84172 13.0473 2.99172C12.8838 2.71172 12.7918 2.41172 12.8122 2.11172C12.8429 1.72172 12.7203 1.35172 12.5363 1.05172C12.1582 0.431719 11.4735 0.0117188 10.7172 0.0117188H9.27627C8.53024 0.0317187 7.84553 0.431719 7.4674 1.05172C7.27323 1.35172 7.16081 1.72172 7.18125 2.11172C7.20169 2.41172 7.10972 2.71172 6.9462 2.99172C6.425 3.84172 5.27019 4.16172 4.38109 3.68172C3.35913 3.10172 2.09191 3.45172 1.49917 4.44172L0.814459 5.62172C0.231943 6.61172 0.55897 7.88172 1.57071 8.45172C2.43937 8.96172 2.74596 10.0917 2.23498 10.9517C2.06125 11.2217 1.87729 11.4517 1.59115 11.5917C1.24368 11.7817 0.937094 12.0817 0.773581 12.3817C0.395456 13.0017 0.415896 13.7817 0.79402 14.4317L1.49917 15.6317C1.87729 16.2717 2.58245 16.6717 3.31825 16.6717C3.66572 16.6717 4.0745 16.5717 4.40153 16.3717C4.65702 16.2017 4.96361 16.1417 5.30085 16.1417C6.31259 16.1417 7.16081 16.9717 7.18125 17.9617C7.18125 19.1117 8.12145 20.0117 9.30692 20.0117H10.6968C11.872 20.0117 12.8122 19.1117 12.8122 17.9617C12.8429 16.9717 13.6911 16.1417 14.7029 16.1417C15.0299 16.1417 15.3365 16.2017 15.6022 16.3717C15.9292 16.5717 16.3278 16.6717 16.6855 16.6717C17.411 16.6717 18.1162 16.2717 18.4943 15.6317L19.2097 14.4317C19.5776 13.7617 19.6083 13.0017 19.2301 12.3817Z" fill="#8A92A6"/>
</svg>
