<svg width="18" height="20" viewBox="0 0 18 20" fill="none" xmlns="http://www.w3.org/2000/svg">
<path d="M8.82413 13.2171H9.17384C11.0977 13.2171 12.73 11.985 13.3044 10.2764C13.3878 10.0276 13.1969 9.77126 12.9325 9.77126H11.8552C11.5123 9.77126 11.2353 9.49766 11.2353 9.15996C11.2353 8.82131 11.5123 8.54675 11.8552 8.54675H12.8995C13.2453 8.54675 13.5253 8.27027 13.5253 7.92875C13.5253 7.58722 13.2453 7.31075 12.8995 7.31075H11.8552C11.5123 7.31075 11.2353 7.03619 11.2353 6.69849C11.2353 6.35984 11.5123 6.08528 11.8552 6.08528H12.8995C13.2453 6.08528 13.5253 5.8088 13.5253 5.46728C13.5253 5.12575 13.2453 4.84928 12.8995 4.84928H11.8552C11.5123 4.84928 11.2353 4.57472 11.2353 4.23606C11.2353 3.89837 11.5123 3.62381 11.8552 3.62381H12.9877C13.2473 3.62381 13.4333 3.3789 13.3635 3.13113C12.8491 1.32401 11.1684 0 9.17384 0H8.82413C6.42074 0 4.47266 1.92287 4.47266 4.29729V8.91984C4.47266 11.2933 6.42074 13.2171 8.82413 13.2171Z" fill="white"/>
<path opacity="0.4" d="M16.5313 7.82422C15.9966 7.82422 15.5626 8.25184 15.5626 8.78087C15.5626 12.354 12.6186 15.2612 9.00048 15.2612C5.38136 15.2612 2.43743 12.354 2.43743 8.78087C2.43743 8.25184 2.00345 7.82422 1.46872 7.82422C0.933985 7.82422 0.5 8.25184 0.5 8.78087C0.5 13.0858 3.79945 16.6398 8.03177 17.1172V19.0419C8.03177 19.57 8.46478 19.9986 9.00048 19.9986C9.53522 19.9986 9.9692 19.57 9.9692 19.0419V17.1172C14.2006 16.6398 17.5 13.0858 17.5 8.78087C17.5 8.25184 17.066 7.82422 16.5313 7.82422Z" fill="white"/>
</svg>
