<svg width="20" height="19" viewBox="0 0 20 19" fill="none" xmlns="http://www.w3.org/2000/svg">
<path opacity="0.4" d="M19.25 10.4881C18.429 10.4881 17.761 9.82621 17.761 9.01271C17.761 8.19822 18.429 7.53632 19.25 7.53632C19.449 7.53632 19.64 7.45805 19.78 7.31933C19.921 7.17962 20 6.99036 20 6.79318L19.999 4.11587C19.999 1.85274 18.14 0.0117188 15.856 0.0117188H4.144C1.86 0.0117188 0.001 1.85274 0.001 4.11587L0 6.87938C0 7.07657 0.079 7.26582 0.22 7.40553C0.36 7.54425 0.551 7.62253 0.75 7.62253C1.599 7.62253 2.239 8.22002 2.239 9.01271C2.239 9.82621 1.571 10.4881 0.75 10.4881C0.336 10.4881 0 10.821 0 11.2312V13.9066C0 16.1697 1.858 18.0117 4.143 18.0117H15.857C18.142 18.0117 20 16.1697 20 13.9066V11.2312C20 10.821 19.664 10.4881 19.25 10.4881Z" fill="#8A92A6"/>
<path d="M13.4298 8.59894L12.2508 9.74694L12.5298 11.3699C12.5778 11.6509 12.4648 11.9279 12.2338 12.0939C12.0048 12.2619 11.7058 12.2829 11.4538 12.1489L9.99885 11.3839L8.54085 12.1499C8.43285 12.2069 8.31485 12.2369 8.19785 12.2369C8.04485 12.2369 7.89385 12.1889 7.76385 12.0949C7.53385 11.9279 7.42085 11.6509 7.46885 11.3699L7.74685 9.74694L6.56785 8.59894C6.36385 8.40094 6.29285 8.10994 6.38085 7.83894C6.46985 7.56894 6.69985 7.37694 6.98085 7.33694L8.60685 7.09994L9.33585 5.62294C9.46285 5.36894 9.71685 5.21094 9.99885 5.21094H10.0008C10.2838 5.21194 10.5378 5.36994 10.6628 5.62394L11.3918 7.09994L13.0208 7.33794C13.2988 7.37694 13.5288 7.56894 13.6168 7.83894C13.7058 8.10994 13.6348 8.40094 13.4298 8.59894Z" fill="#8A92A6"/>
</svg>
